<?xml version="1.0" encoding="UTF-8"?><svg id="Layer_1" xmlns="http://www.w3.org/2000/svg" viewBox="0 0 80.36 99.29"><defs><style>.cls-1{fill:#fff;}.cls-2{fill:#8e9093;}.cls-3{fill:#656668;}</style></defs><path class="cls-1" d="m32.61,57.83c-.35,5.72-.93,11.43-1.76,17.11s-2.16,11.08-2.94,16.67c-.18,1.32-.32,2.65-.34,3.98-.01.83,0,1.66.61,2.29,1.28,1.33,3.92,1,5.55,1.06,5.65.22,11.3.33,16.95.34,3.18,0,6.38.06,9.54-.33,1.31-.16,2.8-.33,4.04-.83.59-.24,1.02-.53,1.13-1.17.04-.23-.41-.18-.44.03-.2,1.23-3.1,1.41-3.99,1.54-1.24.19-2.49.29-3.75.34-2.41.11-4.83.09-7.24.08-5.2-.02-10.4-.12-15.59-.32-1.91-.07-5.89.45-6.32-2.12-.38-2.28.27-5.01.68-7.26.87-4.78,1.86-9.53,2.56-14.34.83-5.67,1.41-11.38,1.76-17.11.01-.23-.43-.18-.44.03h0Z"/><path class="cls-1" d="m65.72,96.82c.96-7.1,2.61-14.09,4.96-20.85,2.23-6.39,5.09-12.55,7.2-18.99,1.02-3.12,1.87-6.31,2.33-9.57.34-2.41.27-5.15-2.12-6.47-4.24-2.33-8.42,1.17-10.8,4.41s-4.41,6.18-6.92,9.08-5.43,5.89-8.23,8.76l.38-.05c-4.57-6.47-8.1-13.64-10.4-21.22-.55-1.82-1.03-3.67-1.44-5.53s-.81-3.84-1.65-5.61c-.77-1.62-1.96-2.93-3.2-4.21-1.55-1.6-3.1-3.2-4.65-4.79-1.14-1.18-4.98-6.45-6.86-3.41-.02.03-.02.07,0,.1.98,1.33,1.97,2.67,2.95,4,.29.4.6.79.89,1.2.48.69.79.74.2,1.47-.68.84-1.97.84-3.02.98-1.81.24-3.7.29-5.41-.42-.66-.27-1.29-.64-1.83-1.12-.27-.24-.51-.5-.72-.79-.14-.19-.45-.88-.54-.93-.31-.2-.7-.08-.96.14-.59.49-.49,1.38-.26,2.01.7,1.95,2.65,3.07,4.24,4.22,1.02.74,1.94,1.5,2.71,2.51.82,1.06,1.52,2.12,2.81,2.64,2.51,1.04,5.47.11,7.67,2.02,2.05,1.77,2.74,4.68,3.21,7.22.64,3.46.8,6.99.84,10.5.06,6.16-.27,12.37.82,18.47.52,2.89,1.35,5.75,2.68,8.38,1,1.98,2.24,4.32,4.72,4.5,2.26.16,4.25-1.19,5.73-2.75.99-1.04,1.85-2.19,2.86-3.21,1.27-1.27,2.79-2.23,4.27-3.23,4.64-3.16,8.66-7.11,12.17-11.48,1.84-2.29,3.53-4.68,5.13-7.14s3.18-4.79,4.15-7.44c1.75-4.83-.6-10.12-5.81-11.25-2.91-.63-5.97-.05-8.85-.87-2.55-.73-4.49-2.69-5.39-5.17s-.58-5,.76-7.26c.67-1.13,1.34-2.21,1.74-3.47.5-1.55.69-3.18.87-4.79.32-2.87.58-5.88-.44-8.65-.8-2.17-2.27-4.06-4.1-5.48-3.67-2.84-8.29-3.43-12.58-1.73-2.61,1.03-5.14,2.6-7.4,4.25-2.09,1.53-3.44,3.36-3.54,6.02-.11,3,.39,6.13.98,9.06.63,3.09,1.53,6.13,2.7,9.06.83,2.08,1.96,4.43,4.16,5.34,2.04.84,4.25.11,6.06-.94,2.6-1.51,4.71-4.14,7.77-4.75.53-.11,1.63-.34,1.92.35.18.41-.19.91-.43,1.2-.47.58-1.23.95-1.89,1.27-1.11.55-2.28.95-3.45,1.36-1.94.68-4,1.4-5.47,2.9-1.14,1.16-1.52,3.23-3.71,2.9-1.46-.22-2.8-1.38-4.15-1.93-2.57-1.03-5.4-1.12-8.14-1.22-3.47-.12-6.91-.42-10.33-1.08-1.52-.29-3.27-.53-4.63-1.29s-2.46-2.62-1.13-3.96c.18-.18-.24-.2-.35-.08-1.82,1.82.21,4,2.03,4.66,3.29,1.2,7.11,1.57,10.58,1.84s7.08,0,10.46.96c1.61.46,2.92,1.4,4.45,2.03.96.39,2.06.66,3.01.11.89-.5,1.18-1.53,1.77-2.3.95-1.24,2.34-2,3.75-2.58,2.32-.96,5.08-1.48,7.09-3.06.49-.39,1.19-1.14.96-1.84-.29-.9-1.66-.62-2.33-.49-2.83.55-4.88,2.76-7.18,4.31-1.67,1.13-3.76,2.16-5.82,1.6-1.82-.5-3-2.09-3.81-3.7-1.55-3.07-2.54-6.53-3.27-9.88-.36-1.65-.65-3.33-.85-5.01-.24-1.99-.56-4.17-.2-6.15.64-3.51,4.3-5.38,7.11-7.03,3.24-1.91,6.79-3.26,10.57-2.36,2.78.66,5.31,2.29,7.09,4.52,2.22,2.77,2.74,6.03,2.51,9.5s-.69,7.03-2.58,10.16c-1.35,2.24-1.93,4.57-1.2,7.14.64,2.27,2.18,4.33,4.33,5.38,2.69,1.31,5.78.89,8.66,1.17,3.55.34,6.63,2.28,7.63,5.86s-.79,6.75-2.5,9.62-3.57,5.68-5.58,8.36c-4.15,5.53-8.99,10.21-14.71,14.09-1.26.85-2.46,1.74-3.52,2.84-1.19,1.24-2.18,2.66-3.49,3.79-1.79,1.54-4.57,2.5-6.53.69-1.26-1.17-2.07-2.96-2.76-4.5-2.82-6.36-2.99-13.49-2.97-20.33,0-3.71.07-7.43-.23-11.13-.25-3.18-.61-6.63-2.02-9.53-1.16-2.37-2.97-3.65-5.58-3.96-1.55-.18-3.26-.09-4.64-.94s-2.08-2.5-3.27-3.58c-1.87-1.71-4.82-2.81-5.73-5.36-.15-.42-.42-2.19.55-1.53.4.27.72,1.05,1.11,1.4.97.88,2.23,1.41,3.51,1.64,1.5.27,3.04.14,4.54-.09.85-.13,2.53-.16,3.2-.89.73-.79-.22-1.68-.7-2.33-.59-.8-1.18-1.6-1.77-2.4-.3-.4-.59-.8-.89-1.2-.2-.27-.39-.53-.59-.8.67-.84,1.3-1.02,1.91-.55.67.36,1.26,1.15,1.77,1.68.69.71,1.38,1.43,2.07,2.14,1.38,1.43,2.77,2.85,4.15,4.28,1.24,1.28,2.5,2.54,3.37,4.11.91,1.65,1.35,3.49,1.76,5.32,1.51,6.76,3.73,13.26,6.97,19.39,1.51,2.87,3.22,5.62,5.09,8.27.07.11.31.03.38-.05,4.31-4.42,8.63-8.85,12.32-13.81,1.74-2.35,3.21-5.04,5.44-6.97,2.07-1.8,5.26-2.76,7.75-1.17,2.74,1.75,1.95,5.47,1.44,8.14-.57,3.01-1.43,5.96-2.42,8.85-2,5.83-4.56,11.45-6.61,17.27-2.44,6.9-4.14,14.05-5.12,21.3-.02.18.41.11.44-.05h0Z"/><path class="cls-3" d="m58.34,23.36c.24.87,1.46,1.11,2.24.67s1.2-1.32,1.53-2.15c.45-1.14.81-2.31,1-3.51.11-.72.13-1.54-.35-2.09-.39-.44-1.03-.6-1.61-.51s-1.1.42-1.55.8c-1.22,1.05-1.96,2.64-1.97,4.25,0,.89.09,2-.68,2.44-.16-2.3-.33-4.6-.49-6.9-.06-.87-.13-1.75-.49-2.54-.59-1.31-1.88-2.14-3.1-2.9-.15-.09-.31-.19-.48-.17-.34.03-.49.43-.58.75-.31,1.14-.77,2.24-1.36,3.26-.4.7-.96,1.42-1.76,1.51-.11.01-.23,0-.31-.06-.17-.15-.03-.43.1-.61,1.11-1.55,1.51-3.58,1.07-5.43-.07-.29-.19-.61-.47-.69-.3-.09-.6.14-.83.36-2.2,2.18-3.81,5.2-6.72,6.26-.27.1-.55.18-.78.33-.49.32-.74.89-1.15,1.3-.66.65-1.64.83-2.56.96-.47.07-.95.14-1.42.04-1.19-.25-1.89-1.55-1.99-2.77s.24-2.42.32-3.63c.06-.85,0-1.72.27-2.52.24-.71.73-1.3,1.23-1.85,2.58-2.87,5.77-5.19,9.3-6.76,1.05-.47,2.14-.87,3.27-1.01,1.29-.16,2.59.02,3.86.27,1.96.38,3.91.93,5.67,1.86s3.36,2.26,4.37,3.98c1.74,2.95,1.62,6.6,1.44,10.02"/><path class="cls-1" d="m58.12,23.42c.64,1.49,2.53,1.04,3.38,0,.65-.8.99-1.9,1.29-2.86.36-1.13.91-2.71.45-3.88-.67-1.7-2.77-1.06-3.82-.16-.77.66-1.35,1.55-1.69,2.5-.22.64-.31,1.29-.32,1.97-.02.75.1,1.65-.6,2.19l.36.02c-.14-1.97-.28-3.94-.42-5.91-.11-1.6-.12-3.25-1.2-4.53-.72-.86-3.04-3.21-3.87-1.48-.41.85-.58,1.83-1.01,2.69-.11.23-1.49,2.81-1.97,1.64-.06-.14.82-1.52.92-1.85.25-.78.36-1.61.33-2.43-.03-.7-.06-2.1-1.08-2-.82.08-1.52,1.22-2,1.78-.86,1.01-1.67,2.07-2.61,3-.64.63-1.35,1.2-2.15,1.59-.59.29-1.25.41-1.75.85-.62.55-.85,1.24-1.69,1.61s-2.62.69-3.46.21c-1.88-1.09-1.3-3.65-1.09-5.39.1-.79.04-1.6.16-2.38.16-1.07.67-1.8,1.37-2.6,1.17-1.33,2.51-2.53,3.92-3.59C42.48,2.25,46.16,0,49.9.3s8.32,1.74,10.92,4.78,2.55,7.39,2.35,11.25c-.01.2.43.13.44-.04.14-2.73.28-5.58-.61-8.21-.81-2.42-2.55-4.32-4.73-5.6-2.32-1.36-5.07-2.09-7.73-2.41-2.81-.34-5.28.61-7.72,1.93-2.28,1.23-4.38,2.77-6.24,4.57-.79.77-1.68,1.59-2.23,2.56-.73,1.25-.53,2.75-.7,4.14-.23,1.86-.66,5.03,1.85,5.6.86.2,1.94-.04,2.79-.29.92-.27,1.33-.71,1.96-1.38,1.04-1.11,2.67-1.48,3.84-2.5.99-.87,1.82-1.91,2.66-2.92.44-.53.89-1.21,1.43-1.64,1.37-1.07,1.36,1.37,1.3,2.07-.07.93-.34,1.86-.78,2.68-.27.49-.67.81-.54,1.38,0,.04.05.07.09.07.98.21,1.7-.49,2.22-1.26.47-.7.83-1.51,1.13-2.3.13-.34.21-1.02.42-1.3.46-.6.84-.35,1.34-.02,1.93,1.28,2.7,2.68,2.87,4.96s.33,4.6.49,6.9c.01.14.3.07.36.02.75-.57.74-1.36.76-2.24.03-1.52.44-2.98,1.53-4.09.31-.32.77-.79,1.19-.91l1.98.28c.19.23.31.49.34.77.19.81-.09,1.8-.29,2.59-.21.83-.49,1.66-.83,2.45-.14.31-.28.63-.47.91-.61.91-2.22,1.46-2.75.22-.07-.17-.5-.05-.43.12h0Z"/><path class="cls-1" d="m40.46,18.37c-1.7-1.72-4.83-1.05-5.28,1.49-.23,1.29.37,3.39,1.51,4.16.83.56,2.41.3,3.24-.14,1.12-.58,1.29-1.96,1.3-3.11,0-.27-.07-.59-.05-.86.06-.69-.52-.22.71-.77,1.1-.5.55-.49.99-.07.21.2.34.67.46.93.28.59.52,1.13,1.07,1.52,2,1.4,5.46.5,6.22-1.9.13-.39.15-.79.13-1.2-.01-.22-.05-.44-.08-.66-.11-.71-.3-.76.32-1.34.9-.86,2.62-.79,3.83-.93,1.28-.15,2.56-.26,3.85-.37,1.4-.12,2.82-.33,4.21-.04.14.03.51-.19.27-.24-1.76-.36-3.62-.04-5.38.12-2.21.2-4.56.3-6.71.84-1.01.25-1.06.63-.9,1.64.21,1.33.29,2.47-.74,3.49-1.18,1.17-3.69,1.38-4.95.14-.88-.86-.89-2.76-2.33-3.02-.82-.15-1.48.33-1.53,1.13-.06.99.27,1.91.05,2.94s-.95,1.74-2.17,1.86c-1.28.13-1.76-.33-2.25-1.26s-.87-2.07-.6-3.13c.51-2.03,2.99-2.5,4.41-1.06.11.11.52-.05.4-.17h0Z"/><path class="cls-2" d="m17.42,15.55c-1.09.45-1.54,1.77-1.57,2.96-.04,1.35.29,2.7.93,3.88.42.76.98,1.47,1.71,1.93s1.67.66,2.5.41c.53-.16,1-.49,1.45-.82.58-.42,1.18-.86,1.56-1.47.41-.67.5-1.47.55-2.25.11-1.99-.17-4.24-1.72-5.5-1.4-1.15-3.57-1.11-5.04-.07s-2.24,2.94-2.1,4.74,1.09,3.49,2.42,4.7c.41.37.85.7,1.34.95.92.45,1.97.57,2.99.59,1.83.02,3.66-.27,5.38-.86.67-.23,1.34-.52,1.82-1.04.63-.71.78-1.72.88-2.66.21-2.01.2-4.33-1.29-5.71-.91-.84-2.2-1.14-3.42-1.36-1.75-.33-3.56-.59-5.31-.27s-3.47,1.32-4.23,2.93c-.39.84-.51,1.77-.54,2.7-.03.82,0,1.64.22,2.43.58,2.09,2.44,3.64,4.49,4.33s4.28.65,6.43.43c.7-.07,1.41-.16,2.1-.06.7.11,1.35.41,2.04.57s1.47.16,2.03-.27c.98-.76.88-2.5,1.99-3.05.51-.25,1.15-.16,1.65-.43.7-.37.89-1.27.96-2.05.07-.74.1-1.48.1-2.23,0-.41-.02-.84-.18-1.22s-.51-.71-.93-.73c-.19-.01-.39.04-.58.02-.56-.08-.77-.77-.85-1.33-.16-1.01-.31-2.02-.47-3.04-.11-.69-.23-1.43-.7-1.96-.54-.6-1.4-.78-2.2-.85-1.22-.11-2.46-.06-3.67.14-.97.17-1.97.46-2.62,1.2s-.77,2.01-.02,2.63c.59.49,1.44.43,2.2.34,1.03-.12,2.06-.24,3.09-.36.27-.03.55-.06.78.08.29.18.38.55.45.89.13.67.18,1.53-.42,1.86-.17.09-.37.12-.53.23-.38.26-.38.82-.34,1.28.08.8.15,1.59.23,2.39.03.35.07.71.23,1.03.31.62.99.94,1.58,1.29s1.2.91,1.15,1.6"/><path class="cls-1" d="m17.33,15.46c-2.26,1.13-1.92,4.38-1.09,6.33.88,2.06,2.98,3.95,5.3,2.84,1-.48,2.21-1.34,2.74-2.33.57-1.06.56-2.44.49-3.61-.15-2.41-1.37-4.77-4.03-4.97-2.29-.17-4.28,1.31-4.99,3.46-.88,2.63.36,5.48,2.41,7.19s5.27,1.54,7.82,1c1.19-.25,2.64-.56,3.59-1.39s1.1-2.11,1.21-3.29c.23-2.63-.17-5.38-2.96-6.38-2.46-.88-5.76-1.31-8.28-.48-2.68.88-3.96,2.96-4.02,5.73-.06,2.93,1.46,5.24,4.15,6.41,1.34.58,2.83.8,4.28.82,1.84.04,3.8-.53,5.59-.05,1.01.27,2.03.75,3.08.38.88-.3,1.23-1.07,1.56-1.87.46-1.12.76-1.25,2.07-1.69.42-.14.77-.25,1.06-.6.76-.9.66-2.51.67-3.61s-.04-2.13-1.22-2.42c-.4-.1-.73-.02-1.01-.33-.19-.22-.24-.52-.29-.79-.21-.97-.3-1.97-.46-2.94-.2-1.27-.48-2.39-1.8-2.85-1.24-.43-2.7-.35-3.98-.23-1.7.17-5.02.92-4.36,3.39.27.99,1.24,1.24,2.16,1.22.75-.02,1.5-.15,2.24-.24.38-.04.78-.12,1.16-.13.77-.03,1.24.04,1.43.86.07.3.14.73.06,1.03-.13.49-.55.61-.88.92-.27.25-.43.44-.48.82-.08.58.07,1.22.13,1.8.07.72.02,1.59.36,2.25.63,1.25,2.62,1.27,2.71,2.86,0,.14.44.05.43-.12-.05-.78-.57-1.24-1.19-1.65-.44-.29-.96-.49-1.3-.92-.49-.6-.47-1.43-.54-2.16-.05-.53-.12-1.06-.15-1.59-.03-.62.08-.89.6-1.3.07-.05.16-.05.22-.11.48-.45.59-.9.52-1.57-.06-.58-.18-1.22-.8-1.42-.75-.24-1.85.13-2.61.22-1.22.14-3.33.64-3.67-1.02-.37-1.79,1.69-2.57,3.09-2.79,1.31-.21,2.81-.3,4.12,0,1.62.37,1.9,1.62,2.13,3.06.16,1.05.14,2.37.6,3.34.3.64.58.51,1.14.66.86.24,1.15.73,1.2,1.56.04.64,0,1.31-.05,1.95-.03.48-.06.98-.2,1.45-.25.87-1.23,1.1-2.01,1.35-2.1.65-1.15,4.04-4.13,3.4-1.01-.22-1.88-.63-2.93-.62-1.24.02-2.46.25-3.7.25-2.6,0-5.33-.62-7.12-2.64-1.66-1.87-1.95-4.99-.91-7.24,1.32-2.86,4.81-3.21,7.57-2.85,2.34.31,5.16.7,6.02,3.26.34,1.02.36,2.11.3,3.17s-.12,2.31-.74,3.19c-.89,1.25-3,1.6-4.43,1.83s-3.08.35-4.54,0c-2.27-.55-4.06-2.76-4.6-4.97-.7-2.87,1.02-6.47,4.35-6.34,3.13.13,4.01,3.35,3.93,5.94-.05,1.42-.34,2.6-1.5,3.55-.9.73-1.91,1.46-3.17,1.2-.78-.16-1.45-.66-1.96-1.25-1.48-1.7-2.91-6.39-.21-7.74.27-.13.02-.28-.17-.19h0Z"/><path class="cls-1" d="m15.17,31.21c1.07-1.83,2.05-3.7,2.91-5.63.94-2.1,1.5-4.61,2.85-6.48,1.08-1.49,2.38-1.96,4.2-1.85.6.04,1.2.06,1.77-.19,1.06-.46,1.57-1.54,1.88-2.59.23-.75.29-1.57.58-2.3.16-.41.21-.55.67-.66.66-.15.45.09.44.67-.01.49-.1.98-.07,1.47.04.94.75,2.15,1.86,1.87.41-.1.66-.38.87-.73.13-.22.2-.48.3-.71.34-.76.83-.62,1.46-.85.74-.27,1.35-1.02.92-1.85-.13-.26-.34-.32-.53-.5-.59-.54-.63-.97-.85-1.68s-.77-1.26-1.43-1.59c-1.65-.81-3.52-.13-5.11.49l.3.03c-.84-1.68-3.31-.45-4.47.14s-2.27,1.2-3.3,1.94c-1.26.91-1.7,2.05-2.42,3.38-2.83,5.19-7.55,8.95-11.86,12.85-1.92,1.74-4.12,3.55-5.34,5.88s-1.13,5.23,1.05,6.97,5.25,2.39,7.79,3.3c3.3,1.18,6.59,2.37,9.89,3.52,1.62.57,3.26,1.11,4.93,1.51,1.54.37,3.17.49,4.67,1.04,1.6.58,2.62,1.61,2.92,3.32.35,1.95.39,4,.56,5.97.01.13.45.04.43-.12-.14-1.53-.27-3.06-.41-4.59-.1-1.13-.19-2.32-.9-3.26-1.21-1.62-3.48-1.91-5.32-2.25-3.02-.56-5.9-1.6-8.79-2.63s-5.87-2.09-8.81-3.14c-2.38-.85-5.42-1.5-7.2-3.43-2.22-2.4-1.02-5.79.79-8.02,3.3-4.04,7.78-7.04,11.37-10.81,1.9-2,3.63-4.18,4.89-6.65.29-.57.53-1.19.92-1.71.65-.87,1.62-1.4,2.54-1.94,1.2-.71,4.65-3.09,5.61-1.17.05.1.22.05.3.03,1.96-.75,5.23-1.52,5.98,1.21.14.53.07.93.45,1.35.32.36.82.37.97.91.24.85-.41,1.07-1.19,1.33s-.98.44-1.33,1.22c-.08.22-.18.43-.28.64-.74.35-1.23.26-1.48-.28-.32-.4-.33-.82-.33-1.3,0-.87.16-1.61-.07-2.46-.02-.07-.14-.06-.19-.06-1.76.12-1.82,2.25-2.19,3.56-.15.53-.32,1.09-.63,1.55-.68,1.03-1.64,1.12-2.81,1.05-.88-.06-1.64-.02-2.45.38-2.09,1.03-2.88,3.33-3.66,5.36-1.12,2.94-2.49,5.77-4.08,8.49-.1.17.33.12.4,0h0Z"/></svg>